<?xml version="1.0" encoding="UTF-8" standalone="no"?><svg xmlns="http://www.w3.org/2000/svg" xmlns:xlink="http://www.w3.org/1999/xlink" contentScriptType="application/ecmascript" contentStyleType="text/css" height="413px" preserveAspectRatio="none" style="width:884px;height:413px;" version="1.1" viewBox="0 0 884 413" width="884px" zoomAndPan="magnify"><defs><filter height="300%" id="f186e1zv9kpvy9" width="300%" x="-1" y="-1"><feGaussianBlur result="blurOut" stdDeviation="2.0"/><feColorMatrix in="blurOut" result="blurOut2" type="matrix" values="0 0 0 0 0 0 0 0 0 0 0 0 0 0 0 0 0 0 .4 0"/><feOffset dx="4.0" dy="4.0" in="blurOut2" result="blurOut3"/><feBlend in="SourceGraphic" in2="blurOut3" mode="normal"/></filter></defs><g><text fill="#000000" font-family="sans-serif" font-size="18" lengthAdjust="spacingAndGlyphs" textLength="128" x="369.25" y="16.708">class diagram</text><!--MD5=[7dabfcf54b0cc64604dd6601796e8887]
class CustomParticipantInfo--><rect codeLine="5" fill="#FEFECE" filter="url(#f186e1zv9kpvy9)" height="73.6094" id="CustomParticipantInfo" style="stroke: #A80036; stroke-width: 1.5;" width="382" x="351.5" y="27.9531"/><ellipse cx="474.25" cy="43.9531" fill="#ADD1B2" rx="11" ry="11" style="stroke: #A80036; stroke-width: 1.0;"/><path d="M476.5938,39.625 C475.6563,39.1875 475.0625,39.0469 474.1875,39.0469 C471.5625,39.0469 469.5625,41.125 469.5625,43.8438 L469.5625,44.9688 C469.5625,47.5469 471.6719,49.4375 474.5625,49.4375 C475.7813,49.4375 476.9375,49.1406 477.6875,48.5938 C478.2656,48.1875 478.5938,47.7344 478.5938,47.3438 C478.5938,46.8906 478.2031,46.5 477.7344,46.5 C477.5156,46.5 477.3125,46.5781 477.125,46.7656 C476.6719,47.25 476.6719,47.25 476.4844,47.3438 C476.0625,47.6094 475.375,47.7344 474.6094,47.7344 C472.5625,47.7344 471.2656,46.6406 471.2656,44.9375 L471.2656,43.8438 C471.2656,42.0625 472.5156,40.75 474.25,40.75 C474.8281,40.75 475.4375,40.9063 475.9063,41.1563 C476.3906,41.4375 476.5625,41.6563 476.6563,42.0625 C476.7188,42.4688 476.75,42.5938 476.8906,42.7188 C477.0313,42.8594 477.2656,42.9688 477.4844,42.9688 C477.75,42.9688 478.0156,42.8281 478.1875,42.6094 C478.2969,42.4531 478.3281,42.2656 478.3281,41.8438 L478.3281,40.4219 C478.3281,39.9844 478.3125,39.8594 478.2188,39.7031 C478.0625,39.4375 477.7813,39.2969 477.4844,39.2969 C477.1875,39.2969 476.9844,39.3906 476.7656,39.7031 L476.5938,39.625 Z "/><text fill="#000000" font-family="sans-serif" font-size="12" lengthAdjust="spacingAndGlyphs" textLength="128" x="494.75" y="48.1074">CustomParticipantInfo</text><line style="stroke: #A80036; stroke-width: 1.5;" x1="352.5" x2="732.5" y1="59.9531" y2="59.9531"/><text fill="#000000" font-family="sans-serif" font-size="11" lengthAdjust="spacingAndGlyphs" textLength="294" x="357.5" y="74.1636">+remote_response_guid_by_remote_request_guid_</text><line style="stroke: #A80036; stroke-width: 1.5;" x1="352.5" x2="732.5" y1="80.7578" y2="80.7578"/><text fill="#000000" font-family="sans-serif" font-size="11" lengthAdjust="spacingAndGlyphs" textLength="370" x="357.5" y="94.9683">+remote_response_guid(remote_request_guid : GUID_t) : GUID_t</text><!--MD5=[99c4014ae02f563a63b218a5785e68fe]
class ParticipantListener--><rect codeLine="10" fill="#FEFECE" filter="url(#f186e1zv9kpvy9)" height="86.4141" id="ParticipantListener" style="stroke: #A80036; stroke-width: 1.5;" width="160" x="705.5" y="168.4531"/><ellipse cx="729.05" cy="184.4531" fill="#ADD1B2" rx="11" ry="11" style="stroke: #A80036; stroke-width: 1.0;"/><path d="M731.3938,180.125 C730.4563,179.6875 729.8625,179.5469 728.9875,179.5469 C726.3625,179.5469 724.3625,181.625 724.3625,184.3438 L724.3625,185.4688 C724.3625,188.0469 726.4719,189.9375 729.3625,189.9375 C730.5813,189.9375 731.7375,189.6406 732.4875,189.0938 C733.0656,188.6875 733.3938,188.2344 733.3938,187.8438 C733.3938,187.3906 733.0031,187 732.5344,187 C732.3156,187 732.1125,187.0781 731.925,187.2656 C731.4719,187.75 731.4719,187.75 731.2844,187.8438 C730.8625,188.1094 730.175,188.2344 729.4094,188.2344 C727.3625,188.2344 726.0656,187.1406 726.0656,185.4375 L726.0656,184.3438 C726.0656,182.5625 727.3156,181.25 729.05,181.25 C729.6281,181.25 730.2375,181.4063 730.7063,181.6563 C731.1906,181.9375 731.3625,182.1563 731.4563,182.5625 C731.5188,182.9688 731.55,183.0938 731.6906,183.2188 C731.8313,183.3594 732.0656,183.4688 732.2844,183.4688 C732.55,183.4688 732.8156,183.3281 732.9875,183.1094 C733.0969,182.9531 733.1281,182.7656 733.1281,182.3438 L733.1281,180.9219 C733.1281,180.4844 733.1125,180.3594 733.0188,180.2031 C732.8625,179.9375 732.5813,179.7969 732.2844,179.7969 C731.9875,179.7969 731.7844,179.8906 731.5656,180.2031 L731.3938,180.125 Z "/><text fill="#000000" font-family="sans-serif" font-size="12" lengthAdjust="spacingAndGlyphs" textLength="109" x="744.95" y="188.6074">ParticipantListener</text><line style="stroke: #A80036; stroke-width: 1.5;" x1="706.5" x2="864.5" y1="200.4531" y2="200.4531"/><line style="stroke: #A80036; stroke-width: 1.5;" x1="706.5" x2="864.5" y1="208.4531" y2="208.4531"/><text fill="#000000" font-family="sans-serif" font-size="11" lengthAdjust="spacingAndGlyphs" textLength="121" x="711.5" y="222.6636">~ParticipantListener()</text><text fill="#000000" font-family="sans-serif" font-size="11" lengthAdjust="spacingAndGlyphs" textLength="139" x="711.5" y="235.4683">~onPublisherDiscovery()</text><text fill="#000000" font-family="sans-serif" font-size="11" lengthAdjust="spacingAndGlyphs" textLength="148" x="711.5" y="248.2729">~onSubscriberDiscovery()</text><!--MD5=[a6afc1d3c59adb94d1c23304e8b36087]
class CustomServiceInfo--><rect codeLine="19" fill="#FEFECE" filter="url(#f186e1zv9kpvy9)" height="73.6094" id="CustomServiceInfo" style="stroke: #A80036; stroke-width: 1.5;" width="255" x="415" y="174.4531"/><ellipse cx="481.75" cy="190.4531" fill="#ADD1B2" rx="11" ry="11" style="stroke: #A80036; stroke-width: 1.0;"/><path d="M484.0938,186.125 C483.1563,185.6875 482.5625,185.5469 481.6875,185.5469 C479.0625,185.5469 477.0625,187.625 477.0625,190.3438 L477.0625,191.4688 C477.0625,194.0469 479.1719,195.9375 482.0625,195.9375 C483.2813,195.9375 484.4375,195.6406 485.1875,195.0938 C485.7656,194.6875 486.0938,194.2344 486.0938,193.8438 C486.0938,193.3906 485.7031,193 485.2344,193 C485.0156,193 484.8125,193.0781 484.625,193.2656 C484.1719,193.75 484.1719,193.75 483.9844,193.8438 C483.5625,194.1094 482.875,194.2344 482.1094,194.2344 C480.0625,194.2344 478.7656,193.1406 478.7656,191.4375 L478.7656,190.3438 C478.7656,188.5625 480.0156,187.25 481.75,187.25 C482.3281,187.25 482.9375,187.4063 483.4063,187.6563 C483.8906,187.9375 484.0625,188.1563 484.1563,188.5625 C484.2188,188.9688 484.25,189.0938 484.3906,189.2188 C484.5313,189.3594 484.7656,189.4688 484.9844,189.4688 C485.25,189.4688 485.5156,189.3281 485.6875,189.1094 C485.7969,188.9531 485.8281,188.7656 485.8281,188.3438 L485.8281,186.9219 C485.8281,186.4844 485.8125,186.3594 485.7188,186.2031 C485.5625,185.9375 485.2813,185.7969 484.9844,185.7969 C484.6875,185.7969 484.4844,185.8906 484.2656,186.2031 L484.0938,186.125 Z "/><text fill="#000000" font-family="sans-serif" font-size="12" lengthAdjust="spacingAndGlyphs" textLength="113" x="502.25" y="194.6074">CustomServiceInfo</text><line style="stroke: #A80036; stroke-width: 1.5;" x1="416" x2="669" y1="206.4531" y2="206.4531"/><text fill="#000000" font-family="sans-serif" font-size="11" lengthAdjust="spacingAndGlyphs" textLength="117" x="421" y="220.6636">+pending_requests_</text><text fill="#000000" font-family="sans-serif" font-size="11" lengthAdjust="spacingAndGlyphs" textLength="243" x="421" y="233.4683">+participant_info_ : CustomParticipantInfo&amp;</text><line style="stroke: #A80036; stroke-width: 1.5;" x1="416" x2="669" y1="240.0625" y2="240.0625"/><!--MD5=[1e2230f04d71051c5d6f5a36a8417d9a]
class ServiceListener--><rect codeLine="26" fill="#FEFECE" filter="url(#f186e1zv9kpvy9)" height="73.6094" id="ServiceListener" style="stroke: #A80036; stroke-width: 1.5;" width="162" x="438.5" y="320.9531"/><ellipse cx="469.7" cy="336.9531" fill="#ADD1B2" rx="11" ry="11" style="stroke: #A80036; stroke-width: 1.0;"/><path d="M472.0438,332.625 C471.1063,332.1875 470.5125,332.0469 469.6375,332.0469 C467.0125,332.0469 465.0125,334.125 465.0125,336.8438 L465.0125,337.9688 C465.0125,340.5469 467.1219,342.4375 470.0125,342.4375 C471.2313,342.4375 472.3875,342.1406 473.1375,341.5938 C473.7156,341.1875 474.0438,340.7344 474.0438,340.3438 C474.0438,339.8906 473.6531,339.5 473.1844,339.5 C472.9656,339.5 472.7625,339.5781 472.575,339.7656 C472.1219,340.25 472.1219,340.25 471.9344,340.3438 C471.5125,340.6094 470.825,340.7344 470.0594,340.7344 C468.0125,340.7344 466.7156,339.6406 466.7156,337.9375 L466.7156,336.8438 C466.7156,335.0625 467.9656,333.75 469.7,333.75 C470.2781,333.75 470.8875,333.9063 471.3563,334.1563 C471.8406,334.4375 472.0125,334.6563 472.1063,335.0625 C472.1688,335.4688 472.2,335.5938 472.3406,335.7188 C472.4813,335.8594 472.7156,335.9688 472.9344,335.9688 C473.2,335.9688 473.4656,335.8281 473.6375,335.6094 C473.7469,335.4531 473.7781,335.2656 473.7781,334.8438 L473.7781,333.4219 C473.7781,332.9844 473.7625,332.8594 473.6688,332.7031 C473.5125,332.4375 473.2313,332.2969 472.9344,332.2969 C472.6375,332.2969 472.4344,332.3906 472.2156,332.7031 L472.0438,332.625 Z "/><text fill="#000000" font-family="sans-serif" font-size="12" lengthAdjust="spacingAndGlyphs" textLength="94" x="487.3" y="341.1074">ServiceListener</text><line style="stroke: #A80036; stroke-width: 1.5;" x1="439.5" x2="599.5" y1="352.9531" y2="352.9531"/><line style="stroke: #A80036; stroke-width: 1.5;" x1="439.5" x2="599.5" y1="360.9531" y2="360.9531"/><text fill="#000000" font-family="sans-serif" font-size="11" lengthAdjust="spacingAndGlyphs" textLength="134" x="444.5" y="375.1636">~onNewDataMessage()</text><text fill="#000000" font-family="sans-serif" font-size="11" lengthAdjust="spacingAndGlyphs" textLength="150" x="444.5" y="387.9683">+OnSubscriptionMatched()</text><!--MD5=[cd3bb22161ccf32c94cabf360c0b1bf2]
class ServicePubListener--><rect codeLine="31" fill="#FEFECE" filter="url(#f186e1zv9kpvy9)" height="73.6094" id="ServicePubListener" style="stroke: #A80036; stroke-width: 1.5;" width="153" x="636" y="320.9531"/><ellipse cx="653.7" cy="336.9531" fill="#ADD1B2" rx="11" ry="11" style="stroke: #A80036; stroke-width: 1.0;"/><path d="M656.0438,332.625 C655.1063,332.1875 654.5125,332.0469 653.6375,332.0469 C651.0125,332.0469 649.0125,334.125 649.0125,336.8438 L649.0125,337.9688 C649.0125,340.5469 651.1219,342.4375 654.0125,342.4375 C655.2313,342.4375 656.3875,342.1406 657.1375,341.5938 C657.7156,341.1875 658.0438,340.7344 658.0438,340.3438 C658.0438,339.8906 657.6531,339.5 657.1844,339.5 C656.9656,339.5 656.7625,339.5781 656.575,339.7656 C656.1219,340.25 656.1219,340.25 655.9344,340.3438 C655.5125,340.6094 654.825,340.7344 654.0594,340.7344 C652.0125,340.7344 650.7156,339.6406 650.7156,337.9375 L650.7156,336.8438 C650.7156,335.0625 651.9656,333.75 653.7,333.75 C654.2781,333.75 654.8875,333.9063 655.3563,334.1563 C655.8406,334.4375 656.0125,334.6563 656.1063,335.0625 C656.1688,335.4688 656.2,335.5938 656.3406,335.7188 C656.4813,335.8594 656.7156,335.9688 656.9344,335.9688 C657.2,335.9688 657.4656,335.8281 657.6375,335.6094 C657.7469,335.4531 657.7781,335.2656 657.7781,334.8438 L657.7781,333.4219 C657.7781,332.9844 657.7625,332.8594 657.6688,332.7031 C657.5125,332.4375 657.2313,332.2969 656.9344,332.2969 C656.6375,332.2969 656.4344,332.3906 656.2156,332.7031 L656.0438,332.625 Z "/><text fill="#000000" font-family="sans-serif" font-size="12" lengthAdjust="spacingAndGlyphs" textLength="115" x="668.3" y="341.1074">ServicePubListener</text><line style="stroke: #A80036; stroke-width: 1.5;" x1="637" x2="788" y1="352.9531" y2="352.9531"/><line style="stroke: #A80036; stroke-width: 1.5;" x1="637" x2="788" y1="360.9531" y2="360.9531"/><text fill="#000000" font-family="sans-serif" font-size="11" lengthAdjust="spacingAndGlyphs" textLength="127" x="642" y="375.1636">~ServicePubListener()</text><text fill="#000000" font-family="sans-serif" font-size="11" lengthAdjust="spacingAndGlyphs" textLength="141" x="642" y="387.9683">~OnPublicationMatched()</text><!--MD5=[13b23013be22d98419231a3fe00c2d6d]
class CustomClientInfo--><rect codeLine="39" fill="#FEFECE" filter="url(#f186e1zv9kpvy9)" height="99.2188" id="CustomClientInfo" style="stroke: #A80036; stroke-width: 1.5;" width="255" x="125" y="161.9531"/><ellipse cx="198.25" cy="177.9531" fill="#ADD1B2" rx="11" ry="11" style="stroke: #A80036; stroke-width: 1.0;"/><path d="M200.5938,173.625 C199.6563,173.1875 199.0625,173.0469 198.1875,173.0469 C195.5625,173.0469 193.5625,175.125 193.5625,177.8438 L193.5625,178.9688 C193.5625,181.5469 195.6719,183.4375 198.5625,183.4375 C199.7813,183.4375 200.9375,183.1406 201.6875,182.5938 C202.2656,182.1875 202.5938,181.7344 202.5938,181.3438 C202.5938,180.8906 202.2031,180.5 201.7344,180.5 C201.5156,180.5 201.3125,180.5781 201.125,180.7656 C200.6719,181.25 200.6719,181.25 200.4844,181.3438 C200.0625,181.6094 199.375,181.7344 198.6094,181.7344 C196.5625,181.7344 195.2656,180.6406 195.2656,178.9375 L195.2656,177.8438 C195.2656,176.0625 196.5156,174.75 198.25,174.75 C198.8281,174.75 199.4375,174.9063 199.9063,175.1563 C200.3906,175.4375 200.5625,175.6563 200.6563,176.0625 C200.7188,176.4688 200.75,176.5938 200.8906,176.7188 C201.0313,176.8594 201.2656,176.9688 201.4844,176.9688 C201.75,176.9688 202.0156,176.8281 202.1875,176.6094 C202.2969,176.4531 202.3281,176.2656 202.3281,175.8438 L202.3281,174.4219 C202.3281,173.9844 202.3125,173.8594 202.2188,173.7031 C202.0625,173.4375 201.7813,173.2969 201.4844,173.2969 C201.1875,173.2969 200.9844,173.3906 200.7656,173.7031 L200.5938,173.625 Z "/><text fill="#000000" font-family="sans-serif" font-size="12" lengthAdjust="spacingAndGlyphs" textLength="100" x="218.75" y="182.1074">CustomClientInfo</text><line style="stroke: #A80036; stroke-width: 1.5;" x1="126" x2="379" y1="193.9531" y2="193.9531"/><text fill="#000000" font-family="sans-serif" font-size="11" lengthAdjust="spacingAndGlyphs" textLength="116" x="131" y="208.1636">+pending_matches_</text><text fill="#000000" font-family="sans-serif" font-size="11" lengthAdjust="spacingAndGlyphs" textLength="124" x="131" y="220.9683">+complete_matches_</text><text fill="#000000" font-family="sans-serif" font-size="11" lengthAdjust="spacingAndGlyphs" textLength="161" x="131" y="233.7729">+complete_matches_count_</text><text fill="#000000" font-family="sans-serif" font-size="11" lengthAdjust="spacingAndGlyphs" textLength="243" x="131" y="246.5776">+participant_info_ : CustomParticipantInfo&amp;</text><line style="stroke: #A80036; stroke-width: 1.5;" x1="126" x2="379" y1="253.1719" y2="253.1719"/><!--MD5=[f21e8db51d7599217f10c158df2a57f0]
class ClientPubListener--><rect codeLine="48" fill="#FEFECE" filter="url(#f186e1zv9kpvy9)" height="60.8047" id="ClientPubListener" style="stroke: #A80036; stroke-width: 1.5;" width="153" x="7" y="327.4531"/><ellipse cx="30.55" cy="343.4531" fill="#ADD1B2" rx="11" ry="11" style="stroke: #A80036; stroke-width: 1.0;"/><path d="M32.8938,339.125 C31.9563,338.6875 31.3625,338.5469 30.4875,338.5469 C27.8625,338.5469 25.8625,340.625 25.8625,343.3438 L25.8625,344.4688 C25.8625,347.0469 27.9719,348.9375 30.8625,348.9375 C32.0813,348.9375 33.2375,348.6406 33.9875,348.0938 C34.5656,347.6875 34.8938,347.2344 34.8938,346.8438 C34.8938,346.3906 34.5031,346 34.0344,346 C33.8156,346 33.6125,346.0781 33.425,346.2656 C32.9719,346.75 32.9719,346.75 32.7844,346.8438 C32.3625,347.1094 31.675,347.2344 30.9094,347.2344 C28.8625,347.2344 27.5656,346.1406 27.5656,344.4375 L27.5656,343.3438 C27.5656,341.5625 28.8156,340.25 30.55,340.25 C31.1281,340.25 31.7375,340.4063 32.2063,340.6563 C32.6906,340.9375 32.8625,341.1563 32.9563,341.5625 C33.0188,341.9688 33.05,342.0938 33.1906,342.2188 C33.3313,342.3594 33.5656,342.4688 33.7844,342.4688 C34.05,342.4688 34.3156,342.3281 34.4875,342.1094 C34.5969,341.9531 34.6281,341.7656 34.6281,341.3438 L34.6281,339.9219 C34.6281,339.4844 34.6125,339.3594 34.5188,339.2031 C34.3625,338.9375 34.0813,338.7969 33.7844,338.7969 C33.4875,338.7969 33.2844,338.8906 33.0656,339.2031 L32.8938,339.125 Z "/><text fill="#000000" font-family="sans-serif" font-size="12" lengthAdjust="spacingAndGlyphs" textLength="102" x="46.45" y="347.6074">ClientPubListener</text><line style="stroke: #A80036; stroke-width: 1.5;" x1="8" x2="159" y1="359.4531" y2="359.4531"/><line style="stroke: #A80036; stroke-width: 1.5;" x1="8" x2="159" y1="367.4531" y2="367.4531"/><text fill="#000000" font-family="sans-serif" font-size="11" lengthAdjust="spacingAndGlyphs" textLength="141" x="13" y="381.6636">~OnPublicationMatched()</text><!--MD5=[c32d8642e1d0a8b590c5706d662463cd]
class ClientListener--><rect codeLine="52" fill="#FEFECE" filter="url(#f186e1zv9kpvy9)" height="60.8047" id="ClientListener" style="stroke: #A80036; stroke-width: 1.5;" width="162" x="195.5" y="327.4531"/><ellipse cx="232.55" cy="343.4531" fill="#ADD1B2" rx="11" ry="11" style="stroke: #A80036; stroke-width: 1.0;"/><path d="M234.8938,339.125 C233.9563,338.6875 233.3625,338.5469 232.4875,338.5469 C229.8625,338.5469 227.8625,340.625 227.8625,343.3438 L227.8625,344.4688 C227.8625,347.0469 229.9719,348.9375 232.8625,348.9375 C234.0813,348.9375 235.2375,348.6406 235.9875,348.0938 C236.5656,347.6875 236.8938,347.2344 236.8938,346.8438 C236.8938,346.3906 236.5031,346 236.0344,346 C235.8156,346 235.6125,346.0781 235.425,346.2656 C234.9719,346.75 234.9719,346.75 234.7844,346.8438 C234.3625,347.1094 233.675,347.2344 232.9094,347.2344 C230.8625,347.2344 229.5656,346.1406 229.5656,344.4375 L229.5656,343.3438 C229.5656,341.5625 230.8156,340.25 232.55,340.25 C233.1281,340.25 233.7375,340.4063 234.2063,340.6563 C234.6906,340.9375 234.8625,341.1563 234.9563,341.5625 C235.0188,341.9688 235.05,342.0938 235.1906,342.2188 C235.3313,342.3594 235.5656,342.4688 235.7844,342.4688 C236.05,342.4688 236.3156,342.3281 236.4875,342.1094 C236.5969,341.9531 236.6281,341.7656 236.6281,341.3438 L236.6281,339.9219 C236.6281,339.4844 236.6125,339.3594 236.5188,339.2031 C236.3625,338.9375 236.0813,338.7969 235.7844,338.7969 C235.4875,338.7969 235.2844,338.8906 235.0656,339.2031 L234.8938,339.125 Z "/><text fill="#000000" font-family="sans-serif" font-size="12" lengthAdjust="spacingAndGlyphs" textLength="81" x="251.45" y="347.6074">ClientListener</text><line style="stroke: #A80036; stroke-width: 1.5;" x1="196.5" x2="356.5" y1="359.4531" y2="359.4531"/><line style="stroke: #A80036; stroke-width: 1.5;" x1="196.5" x2="356.5" y1="367.4531" y2="367.4531"/><text fill="#000000" font-family="sans-serif" font-size="11" lengthAdjust="spacingAndGlyphs" textLength="150" x="201.5" y="381.6636">~OnSubscriptionMatched()</text><!--MD5=[b7145fd63a31c9523711c1aa75dfcae9]
link CustomParticipantInfo to ParticipantListener--><path codeLine="16" d="M603.192,102.0441 C633.498,120.0651 670.604,142.1301 703.411,161.6391 " fill="none" id="CustomParticipantInfo-&gt;ParticipantListener" style="stroke: #A80036; stroke-width: 1.0;"/><polygon fill="#FFFFFF" points="714.818,168.4221,711.7058,161.9172,704.5042,162.2882,707.6164,168.7931,714.818,168.4221" style="stroke: #A80036; stroke-width: 1.0;"/><!--MD5=[e4ac4657ab1fcdc8d4e02ac273de6223]
link CustomParticipantInfo to CustomServiceInfo--><path codeLine="24" d="M542.5,102.0441 C542.5,119.8881 542.5,141.6981 542.5,161.0641 " fill="none" id="CustomParticipantInfo-&gt;CustomServiceInfo" style="stroke: #A80036; stroke-width: 1.0;"/><polygon fill="#FFFFFF" points="542.5,174.3221,546.5,168.3221,542.5,162.3221,538.5,168.3221,542.5,174.3221" style="stroke: #A80036; stroke-width: 1.0;"/><!--MD5=[03eea0fbd7f456e8b2d454e2dc7036ee]
link CustomServiceInfo to ServiceListener--><path codeLine="36" d="M536.755,248.5441 C533.901,266.4751 530.41,288.4091 527.317,307.8449 " fill="none" id="CustomServiceInfo-&gt;ServiceListener" style="stroke: #A80036; stroke-width: 1.0;"/><polygon fill="#FFFFFF" points="525.251,320.8217,530.1444,315.5251,527.1373,308.9709,522.2439,314.2675,525.251,320.8217" style="stroke: #A80036; stroke-width: 1.0;"/><!--MD5=[4c416b9915eafedd80384a70be57d28a]
link CustomServiceInfo to ServicePubListener--><path codeLine="37" d="M584.96,248.5441 C607.677,267.8541 635.858,291.8071 659.947,312.2829 " fill="none" id="CustomServiceInfo-&gt;ServicePubListener" style="stroke: #A80036; stroke-width: 1.0;"/><polygon fill="#FFFFFF" points="669.992,320.8217,668.0112,313.888,660.849,313.0496,662.8298,319.9833,669.992,320.8217" style="stroke: #A80036; stroke-width: 1.0;"/><!--MD5=[fc4594d0d97e9d4cf2a6b1e5b867734c]
link CustomParticipantInfo to CustomClientInfo--><path codeLine="46" d="M470.069,102.0441 C437.295,118.3741 397.856,138.0261 361.61,156.0861 " fill="none" id="CustomParticipantInfo-&gt;CustomClientInfo" style="stroke: #A80036; stroke-width: 1.0;"/><polygon fill="#FFFFFF" points="349.966,161.8881,357.1201,162.7927,360.7068,156.5369,353.5526,155.6322,349.966,161.8881" style="stroke: #A80036; stroke-width: 1.0;"/><!--MD5=[8b3edd65f6abca0c12963aa029563208]
link CustomClientInfo to ClientListener--><path codeLine="56" d="M260.558,260.9711 C263.41,278.1381 266.595,297.3155 269.364,313.9883 " fill="none" id="CustomClientInfo-&gt;ClientListener" style="stroke: #A80036; stroke-width: 1.0;"/><polygon fill="#FFFFFF" points="271.576,327.3053,274.5389,320.731,269.6098,315.4675,266.647,322.0418,271.576,327.3053" style="stroke: #A80036; stroke-width: 1.0;"/><!--MD5=[64b1fae8c4c39477ab6920a3ae02975f]
link CustomClientInfo to ClientPubListener--><path codeLine="57" d="M195.755,260.9711 C173.771,279.7691 148.966,300.9773 128.276,318.6684 " fill="none" id="CustomClientInfo-&gt;ClientPubListener" style="stroke: #A80036; stroke-width: 1.0;"/><polygon fill="#FFFFFF" points="118.175,327.3053,125.3347,326.4462,127.2955,319.5068,120.1357,320.3659,118.175,327.3053" style="stroke: #A80036; stroke-width: 1.0;"/><!--MD5=[22b78dc441881eef6fb739a0e4553ffe]
@startuml
title class diagram

skinparam classAttributeIconSize 0

class CustomParticipantInfo {
  +remote_response_guid_by_remote_request_guid_
  +remote_response_guid(remote_request_guid : GUID_t) : GUID_t
}

class ParticipantListener {
  ~ParticipantListener()
  ~onPublisherDiscovery()
  ~onSubscriberDiscovery()
}

ParticipantListener o-u- CustomParticipantInfo


class CustomServiceInfo {
  +pending_requests_
  +participant_info_ : CustomParticipantInfo&
}

CustomServiceInfo o-u- CustomParticipantInfo

class ServiceListener {
  ~onNewDataMessage()
  +OnSubscriptionMatched()
}

class ServicePubListener {
  ~ServicePubListener()
  ~OnPublicationMatched()
}

ServiceListener o-u- CustomServiceInfo
ServicePubListener o-u- CustomServiceInfo

class CustomClientInfo {
  +pending_matches_
  +complete_matches_
  +complete_matches_count_
  +participant_info_ : CustomParticipantInfo&
}

CustomClientInfo o-u- CustomParticipantInfo

class ClientPubListener {
  ~OnPublicationMatched()
}

class ClientListener {
  ~OnSubscriptionMatched()
}

ClientListener o-u- CustomClientInfo
ClientPubListener o-u- CustomClientInfo
@enduml

PlantUML version 1.2020.16beta7(Unknown compile time)
(GPL source distribution)
Java Runtime: Java(TM) SE Runtime Environment
JVM: Java HotSpot(TM) 64-Bit Server VM
Default Encoding: UTF-8
Language: en
Country: US
--></g></svg>