<?xml version="1.0" encoding="UTF-8" standalone="no"?><svg xmlns="http://www.w3.org/2000/svg" xmlns:xlink="http://www.w3.org/1999/xlink" contentScriptType="application/ecmascript" contentStyleType="text/css" height="281px" preserveAspectRatio="none" style="width:666px;height:281px;" version="1.1" viewBox="0 0 666 281" width="666px" zoomAndPan="magnify"><defs><filter height="300%" id="f14nod52ol0bh4" width="300%" x="-1" y="-1"><feGaussianBlur result="blurOut" stdDeviation="2.0"/><feColorMatrix in="blurOut" result="blurOut2" type="matrix" values="0 0 0 0 0 0 0 0 0 0 0 0 0 0 0 0 0 0 .4 0"/><feOffset dx="4.0" dy="4.0" in="blurOut2" result="blurOut3"/><feBlend in="SourceGraphic" in2="blurOut3" mode="normal"/></filter></defs><g><text fill="#000000" font-family="sans-serif" font-size="18" lengthAdjust="spacingAndGlyphs" textLength="642" x="12" y="26.708">CustomParticipantInfo::remote_response_guid(remote_request_guid)</text><ellipse cx="334.75" cy="40.9531" fill="#000000" filter="url(#f14nod52ol0bh4)" rx="10" ry="10" style="stroke: none; stroke-width: 1.0;"/><rect fill="#FEFECE" filter="url(#f14nod52ol0bh4)" height="33.9688" rx="12.5" ry="12.5" style="stroke: #A80036; stroke-width: 1.5;" width="545" x="62.25" y="70.9531"/><text fill="#000000" font-family="sans-serif" font-size="12" lengthAdjust="spacingAndGlyphs" textLength="521" x="76.25" y="92.0918">auto it = remote_response_guid_by_remote_request_guid_.find(remote_request_guid)</text><polygon fill="#FEFECE" filter="url(#f14nod52ol0bh4)" points="159.25,124.9219,510.25,124.9219,522.25,136.9219,510.25,148.9219,159.25,148.9219,147.25,136.9219,159.25,124.9219" style="stroke: #A80036; stroke-width: 1.5;"/><text fill="#000000" font-family="sans-serif" font-size="11" lengthAdjust="spacingAndGlyphs" textLength="351" x="159.25" y="140.73">it == remote_response_guid_by_remote_request_guid_.end()</text><rect fill="#FEFECE" filter="url(#f14nod52ol0bh4)" height="33.9688" rx="12.5" ry="12.5" style="stroke: #A80036; stroke-width: 1.5;" width="165" x="54.75" y="158.9219"/><text fill="#000000" font-family="sans-serif" font-size="12" lengthAdjust="spacingAndGlyphs" textLength="141" x="68.75" y="180.0605">return c_Guid_Unknown</text><rect fill="#FEFECE" filter="url(#f14nod52ol0bh4)" height="33.9688" rx="12.5" ry="12.5" style="stroke: #A80036; stroke-width: 1.5;" width="131" x="466.75" y="158.9219"/><text fill="#000000" font-family="sans-serif" font-size="12" lengthAdjust="spacingAndGlyphs" textLength="107" x="480.75" y="180.0605">return it-&gt;second</text><polygon fill="#FEFECE" filter="url(#f14nod52ol0bh4)" points="334.75,198.8906,346.75,210.8906,334.75,222.8906,322.75,210.8906,334.75,198.8906" style="stroke: #A80036; stroke-width: 1.5;"/><ellipse cx="334.75" cy="253.8906" fill="#FFFFFF" filter="url(#f14nod52ol0bh4)" rx="11" ry="11" style="stroke: #000000; stroke-width: 1.0;"/><ellipse cx="334.75" cy="253.8906" fill="#000000" rx="6" ry="6" style="stroke: #7F7F7F; stroke-width: 1.0;"/><line style="stroke: #A80036; stroke-width: 1.5;" x1="334.75" x2="334.75" y1="50.9531" y2="70.9531"/><polygon fill="#A80036" points="330.75,60.9531,334.75,70.9531,338.75,60.9531,334.75,64.9531" style="stroke: #A80036; stroke-width: 1.0;"/><line style="stroke: #A80036; stroke-width: 1.5;" x1="147.25" x2="137.25" y1="136.9219" y2="136.9219"/><line style="stroke: #A80036; stroke-width: 1.5;" x1="137.25" x2="137.25" y1="136.9219" y2="158.9219"/><polygon fill="#A80036" points="133.25,148.9219,137.25,158.9219,141.25,148.9219,137.25,152.9219" style="stroke: #A80036; stroke-width: 1.0;"/><line style="stroke: #A80036; stroke-width: 1.5;" x1="522.25" x2="532.25" y1="136.9219" y2="136.9219"/><line style="stroke: #A80036; stroke-width: 1.5;" x1="532.25" x2="532.25" y1="136.9219" y2="158.9219"/><polygon fill="#A80036" points="528.25,148.9219,532.25,158.9219,536.25,148.9219,532.25,152.9219" style="stroke: #A80036; stroke-width: 1.0;"/><line style="stroke: #A80036; stroke-width: 1.5;" x1="137.25" x2="137.25" y1="192.8906" y2="210.8906"/><line style="stroke: #A80036; stroke-width: 1.5;" x1="137.25" x2="322.75" y1="210.8906" y2="210.8906"/><polygon fill="#A80036" points="312.75,206.8906,322.75,210.8906,312.75,214.8906,316.75,210.8906" style="stroke: #A80036; stroke-width: 1.0;"/><line style="stroke: #A80036; stroke-width: 1.5;" x1="532.25" x2="532.25" y1="192.8906" y2="210.8906"/><line style="stroke: #A80036; stroke-width: 1.5;" x1="532.25" x2="346.75" y1="210.8906" y2="210.8906"/><polygon fill="#A80036" points="356.75,206.8906,346.75,210.8906,356.75,214.8906,352.75,210.8906" style="stroke: #A80036; stroke-width: 1.0;"/><line style="stroke: #A80036; stroke-width: 1.5;" x1="334.75" x2="334.75" y1="104.9219" y2="124.9219"/><polygon fill="#A80036" points="330.75,114.9219,334.75,124.9219,338.75,114.9219,334.75,118.9219" style="stroke: #A80036; stroke-width: 1.0;"/><line style="stroke: #A80036; stroke-width: 1.5;" x1="334.75" x2="334.75" y1="222.8906" y2="242.8906"/><polygon fill="#A80036" points="330.75,232.8906,334.75,242.8906,338.75,232.8906,334.75,236.8906" style="stroke: #A80036; stroke-width: 1.0;"/><!--MD5=[bcd3854c2464707c6d836689d31c0a26]
@startuml
title CustomParticipantInfo::remote_response_guid(remote_request_guid)
start
: auto it = remote_response_guid_by_remote_request_guid_.find(remote_request_guid);
if (it == remote_response_guid_by_remote_request_guid_.end())
  : return c_Guid_Unknown;
else
  : return it->second;
endif
stop
@enduml

PlantUML version 1.2020.16beta7(Unknown compile time)
(GPL source distribution)
Java Runtime: Java(TM) SE Runtime Environment
JVM: Java HotSpot(TM) 64-Bit Server VM
Default Encoding: UTF-8
Language: en
Country: US
--></g></svg>