<?xml version="1.0" encoding="UTF-8" standalone="no"?><svg xmlns="http://www.w3.org/2000/svg" xmlns:xlink="http://www.w3.org/1999/xlink" contentScriptType="application/ecmascript" contentStyleType="text/css" height="476px" preserveAspectRatio="none" style="width:1118px;height:476px;" version="1.1" viewBox="0 0 1118 476" width="1118px" zoomAndPan="magnify"><defs><filter height="300%" id="fxb0krnbc2jvi" width="300%" x="-1" y="-1"><feGaussianBlur result="blurOut" stdDeviation="2.0"/><feColorMatrix in="blurOut" result="blurOut2" type="matrix" values="0 0 0 0 0 0 0 0 0 0 0 0 0 0 0 0 0 0 .4 0"/><feOffset dx="4.0" dy="4.0" in="blurOut2" result="blurOut3"/><feBlend in="SourceGraphic" in2="blurOut3" mode="normal"/></filter></defs><g><text fill="#000000" font-family="sans-serif" font-size="18" lengthAdjust="spacingAndGlyphs" textLength="392" x="362" y="26.708">ParticipantListener::onPublisherDiscovery</text><ellipse cx="580.5" cy="40.9531" fill="#000000" filter="url(#fxb0krnbc2jvi)" rx="10" ry="10" style="stroke: none; stroke-width: 1.0;"/><polygon fill="#FEFECE" filter="url(#fxb0krnbc2jvi)" points="519,119.3555,642,119.3555,654,131.3555,642,143.3555,519,143.3555,507,131.3555,519,119.3555" style="stroke: #A80036; stroke-width: 1.5;"/><text fill="#000000" font-family="sans-serif" font-size="11" lengthAdjust="spacingAndGlyphs" textLength="123" x="519" y="135.1636">DISCOVERED_WRITER</text><text fill="#000000" font-family="sans-serif" font-size="11" lengthAdjust="spacingAndGlyphs" textLength="21" x="486" y="128.7612">yes</text><text fill="#000000" font-family="sans-serif" font-size="11" lengthAdjust="spacingAndGlyphs" textLength="14" x="654" y="128.7612">no</text><rect fill="#FEFECE" filter="url(#fxb0krnbc2jvi)" height="33.9688" rx="12.5" ry="12.5" style="stroke: #A80036; stroke-width: 1.5;" width="178" x="208.5" y="153.3555"/><text fill="#000000" font-family="sans-serif" font-size="12" lengthAdjust="spacingAndGlyphs" textLength="154" x="222.5" y="174.4941">process_discovery_info()</text><rect fill="#FEFECE" filter="url(#fxb0krnbc2jvi)" height="33.9688" rx="12.5" ry="12.5" style="stroke: #A80036; stroke-width: 1.5;" width="226" x="184.5" y="207.3242"/><text fill="#000000" font-family="sans-serif" font-size="12" lengthAdjust="spacingAndGlyphs" textLength="202" x="198.5" y="228.4629">get reader_guid from USER_DATA</text><rect fill="#FEFECE" filter="url(#fxb0krnbc2jvi)" height="33.9688" rx="12.5" ry="12.5" style="stroke: #A80036; stroke-width: 1.5;" width="573" x="11" y="309.6953"/><text fill="#000000" font-family="sans-serif" font-size="12" lengthAdjust="spacingAndGlyphs" textLength="549" x="25" y="330.834">remote_response_guid_by_remote_request_guid_.emplace(proxyData.guid(), reader_guid)</text><polygon fill="#FEFECE" filter="url(#fxb0krnbc2jvi)" points="239.5,261.293,355.5,261.293,367.5,273.293,355.5,285.293,239.5,285.293,227.5,273.293,239.5,261.293" style="stroke: #A80036; stroke-width: 1.5;"/><text fill="#000000" font-family="sans-serif" font-size="11" lengthAdjust="spacingAndGlyphs" textLength="21" x="301.5" y="295.5034">yes</text><text fill="#000000" font-family="sans-serif" font-size="11" lengthAdjust="spacingAndGlyphs" textLength="116" x="239.5" y="277.1011">reader_guid defined</text><polygon fill="#FEFECE" filter="url(#fxb0krnbc2jvi)" points="297.5,363.6641,309.5,375.6641,297.5,387.6641,285.5,375.6641,297.5,363.6641" style="stroke: #A80036; stroke-width: 1.5;"/><rect fill="#FEFECE" filter="url(#fxb0krnbc2jvi)" height="33.9688" rx="12.5" ry="12.5" style="stroke: #A80036; stroke-width: 1.5;" width="178" x="774.5" y="153.3555"/><text fill="#000000" font-family="sans-serif" font-size="12" lengthAdjust="spacingAndGlyphs" textLength="154" x="788.5" y="174.4941">process_discovery_info()</text><rect fill="#FEFECE" filter="url(#fxb0krnbc2jvi)" height="33.9688" rx="12.5" ry="12.5" style="stroke: #A80036; stroke-width: 1.5;" width="475" x="626" y="207.3242"/><text fill="#000000" font-family="sans-serif" font-size="12" lengthAdjust="spacingAndGlyphs" textLength="451" x="640" y="228.4629">remote_response_guid_by_remote_request_guid_.erase(proxyData.guid())</text><polygon fill="#FEFECE" filter="url(#fxb0krnbc2jvi)" points="580.5,393.6641,592.5,405.6641,580.5,417.6641,568.5,405.6641,580.5,393.6641" style="stroke: #A80036; stroke-width: 1.5;"/><polygon fill="#FEFECE" filter="url(#fxb0krnbc2jvi)" points="512,70.9531,649,70.9531,661,82.9531,649,94.9531,512,94.9531,500,82.9531,512,70.9531" style="stroke: #A80036; stroke-width: 1.5;"/><text fill="#000000" font-family="sans-serif" font-size="11" lengthAdjust="spacingAndGlyphs" textLength="14" x="584.5" y="105.1636">no</text><text fill="#000000" font-family="sans-serif" font-size="11" lengthAdjust="spacingAndGlyphs" textLength="137" x="512" y="86.7612">CHANGED_QOS_WRITER</text><text fill="#000000" font-family="sans-serif" font-size="11" lengthAdjust="spacingAndGlyphs" textLength="21" x="661" y="80.3589">yes</text><ellipse cx="704" cy="82.9531" fill="#FFFFFF" filter="url(#fxb0krnbc2jvi)" rx="11" ry="11" style="stroke: #000000; stroke-width: 1.0;"/><ellipse cx="704" cy="82.9531" fill="#000000" rx="6" ry="6" style="stroke: #7F7F7F; stroke-width: 1.0;"/><ellipse cx="580.5" cy="448.6641" fill="#FFFFFF" filter="url(#fxb0krnbc2jvi)" rx="11" ry="11" style="stroke: #000000; stroke-width: 1.0;"/><ellipse cx="580.5" cy="448.6641" fill="#000000" rx="6" ry="6" style="stroke: #7F7F7F; stroke-width: 1.0;"/><line style="stroke: #A80036; stroke-width: 1.5;" x1="297.5" x2="297.5" y1="187.3242" y2="207.3242"/><polygon fill="#A80036" points="293.5,197.3242,297.5,207.3242,301.5,197.3242,297.5,201.3242" style="stroke: #A80036; stroke-width: 1.0;"/><line style="stroke: #A80036; stroke-width: 1.5;" x1="297.5" x2="297.5" y1="285.293" y2="309.6953"/><polygon fill="#A80036" points="293.5,299.6953,297.5,309.6953,301.5,299.6953,297.5,303.6953" style="stroke: #A80036; stroke-width: 1.0;"/><line style="stroke: #A80036; stroke-width: 1.5;" x1="367.5" x2="594" y1="273.293" y2="273.293"/><polygon fill="#A80036" points="590,316.6797,594,326.6797,598,316.6797,594,320.6797" style="stroke: #A80036; stroke-width: 1.5;"/><line style="stroke: #A80036; stroke-width: 1.5;" x1="594" x2="594" y1="273.293" y2="375.6641"/><line style="stroke: #A80036; stroke-width: 1.5;" x1="594" x2="309.5" y1="375.6641" y2="375.6641"/><polygon fill="#A80036" points="319.5,371.6641,309.5,375.6641,319.5,379.6641,315.5,375.6641" style="stroke: #A80036; stroke-width: 1.0;"/><line style="stroke: #A80036; stroke-width: 1.5;" x1="297.5" x2="297.5" y1="343.6641" y2="363.6641"/><polygon fill="#A80036" points="293.5,353.6641,297.5,363.6641,301.5,353.6641,297.5,357.6641" style="stroke: #A80036; stroke-width: 1.0;"/><line style="stroke: #A80036; stroke-width: 1.5;" x1="297.5" x2="297.5" y1="241.293" y2="261.293"/><polygon fill="#A80036" points="293.5,251.293,297.5,261.293,301.5,251.293,297.5,255.293" style="stroke: #A80036; stroke-width: 1.0;"/><line style="stroke: #A80036; stroke-width: 1.5;" x1="863.5" x2="863.5" y1="187.3242" y2="207.3242"/><polygon fill="#A80036" points="859.5,197.3242,863.5,207.3242,867.5,197.3242,863.5,201.3242" style="stroke: #A80036; stroke-width: 1.0;"/><line style="stroke: #A80036; stroke-width: 1.5;" x1="507" x2="297.5" y1="131.3555" y2="131.3555"/><line style="stroke: #A80036; stroke-width: 1.5;" x1="297.5" x2="297.5" y1="131.3555" y2="153.3555"/><polygon fill="#A80036" points="293.5,143.3555,297.5,153.3555,301.5,143.3555,297.5,147.3555" style="stroke: #A80036; stroke-width: 1.0;"/><line style="stroke: #A80036; stroke-width: 1.5;" x1="654" x2="863.5" y1="131.3555" y2="131.3555"/><line style="stroke: #A80036; stroke-width: 1.5;" x1="863.5" x2="863.5" y1="131.3555" y2="153.3555"/><polygon fill="#A80036" points="859.5,143.3555,863.5,153.3555,867.5,143.3555,863.5,147.3555" style="stroke: #A80036; stroke-width: 1.0;"/><line style="stroke: #A80036; stroke-width: 1.5;" x1="297.5" x2="297.5" y1="387.6641" y2="405.6641"/><line style="stroke: #A80036; stroke-width: 1.5;" x1="297.5" x2="568.5" y1="405.6641" y2="405.6641"/><polygon fill="#A80036" points="558.5,401.6641,568.5,405.6641,558.5,409.6641,562.5,405.6641" style="stroke: #A80036; stroke-width: 1.0;"/><line style="stroke: #A80036; stroke-width: 1.5;" x1="863.5" x2="863.5" y1="241.293" y2="405.6641"/><line style="stroke: #A80036; stroke-width: 1.5;" x1="863.5" x2="592.5" y1="405.6641" y2="405.6641"/><polygon fill="#A80036" points="602.5,401.6641,592.5,405.6641,602.5,409.6641,598.5,405.6641" style="stroke: #A80036; stroke-width: 1.0;"/><line style="stroke: #A80036; stroke-width: 1.5;" x1="580.5" x2="580.5" y1="94.9531" y2="119.3555"/><polygon fill="#A80036" points="576.5,109.3555,580.5,119.3555,584.5,109.3555,580.5,113.3555" style="stroke: #A80036; stroke-width: 1.0;"/><line style="stroke: #A80036; stroke-width: 1.5;" x1="661" x2="693" y1="82.9531" y2="82.9531"/><polygon fill="#A80036" points="683,78.9531,693,82.9531,683,86.9531,687,82.9531" style="stroke: #A80036; stroke-width: 1.0;"/><line style="stroke: #A80036; stroke-width: 1.5;" x1="580.5" x2="580.5" y1="417.6641" y2="437.6641"/><polygon fill="#A80036" points="576.5,427.6641,580.5,437.6641,584.5,427.6641,580.5,431.6641" style="stroke: #A80036; stroke-width: 1.0;"/><line style="stroke: #A80036; stroke-width: 1.5;" x1="580.5" x2="580.5" y1="50.9531" y2="70.9531"/><polygon fill="#A80036" points="576.5,60.9531,580.5,70.9531,584.5,60.9531,580.5,64.9531" style="stroke: #A80036; stroke-width: 1.0;"/><!--MD5=[3c95c5f62c07fa66e32ffbbd5e844208]
@startuml
title ParticipantListener::onPublisherDiscovery
start
if (CHANGED_QOS_WRITER) then (yes)
  stop
else (no)
  if (DISCOVERED_WRITER) then (yes)
    : process_discovery_info();
    : get reader_guid from USER_DATA;
    if (reader_guid defined) then (yes)
      : remote_response_guid_by_remote_request_guid_.emplace(proxyData.guid(), reader_guid);
    endif
  else (no)
    : process_discovery_info();
    : remote_response_guid_by_remote_request_guid_.erase(proxyData.guid());
  endif
endif
stop
@enduml

PlantUML version 1.2020.16beta7(Unknown compile time)
(GPL source distribution)
Java Runtime: Java(TM) SE Runtime Environment
JVM: Java HotSpot(TM) 64-Bit Server VM
Default Encoding: UTF-8
Language: en
Country: US
--></g></svg>