<?xml version="1.0" encoding="UTF-8" standalone="no"?><svg xmlns="http://www.w3.org/2000/svg" xmlns:xlink="http://www.w3.org/1999/xlink" contentScriptType="application/ecmascript" contentStyleType="text/css" height="476px" preserveAspectRatio="none" style="width:1112px;height:476px;" version="1.1" viewBox="0 0 1112 476" width="1112px" zoomAndPan="magnify"><defs><filter height="300%" id="f16z1jubqmvon6" width="300%" x="-1" y="-1"><feGaussianBlur result="blurOut" stdDeviation="2.0"/><feColorMatrix in="blurOut" result="blurOut2" type="matrix" values="0 0 0 0 0 0 0 0 0 0 0 0 0 0 0 0 0 0 .4 0"/><feOffset dx="4.0" dy="4.0" in="blurOut2" result="blurOut3"/><feBlend in="SourceGraphic" in2="blurOut3" mode="normal"/></filter></defs><g><text fill="#000000" font-family="sans-serif" font-size="18" lengthAdjust="spacingAndGlyphs" textLength="406" x="352" y="26.708">ParticipantListener::onSubscriberDiscovery</text><ellipse cx="576" cy="40.9531" fill="#000000" filter="url(#f16z1jubqmvon6)" rx="10" ry="10" style="stroke: none; stroke-width: 1.0;"/><polygon fill="#FEFECE" filter="url(#f16z1jubqmvon6)" points="513,119.3555,639,119.3555,651,131.3555,639,143.3555,513,143.3555,501,131.3555,513,119.3555" style="stroke: #A80036; stroke-width: 1.5;"/><text fill="#000000" font-family="sans-serif" font-size="11" lengthAdjust="spacingAndGlyphs" textLength="126" x="513" y="135.1636">DISCOVERED_READER</text><text fill="#000000" font-family="sans-serif" font-size="11" lengthAdjust="spacingAndGlyphs" textLength="21" x="480" y="128.7612">yes</text><text fill="#000000" font-family="sans-serif" font-size="11" lengthAdjust="spacingAndGlyphs" textLength="14" x="651" y="128.7612">no</text><rect fill="#FEFECE" filter="url(#f16z1jubqmvon6)" height="33.9688" rx="12.5" ry="12.5" style="stroke: #A80036; stroke-width: 1.5;" width="178" x="205.5" y="153.3555"/><text fill="#000000" font-family="sans-serif" font-size="12" lengthAdjust="spacingAndGlyphs" textLength="154" x="219.5" y="174.4941">process_discovery_info()</text><rect fill="#FEFECE" filter="url(#f16z1jubqmvon6)" height="33.9688" rx="12.5" ry="12.5" style="stroke: #A80036; stroke-width: 1.5;" width="220" x="184.5" y="207.3242"/><text fill="#000000" font-family="sans-serif" font-size="12" lengthAdjust="spacingAndGlyphs" textLength="196" x="198.5" y="228.4629">get writer_guid from USER_DATA</text><rect fill="#FEFECE" filter="url(#f16z1jubqmvon6)" height="33.9688" rx="12.5" ry="12.5" style="stroke: #A80036; stroke-width: 1.5;" width="567" x="11" y="309.6953"/><text fill="#000000" font-family="sans-serif" font-size="12" lengthAdjust="spacingAndGlyphs" textLength="543" x="25" y="330.834">remote_response_guid_by_remote_request_guid_.emplace(proxyData.guid(), writer_guid)</text><polygon fill="#FEFECE" filter="url(#f16z1jubqmvon6)" points="239.5,261.293,349.5,261.293,361.5,273.293,349.5,285.293,239.5,285.293,227.5,273.293,239.5,261.293" style="stroke: #A80036; stroke-width: 1.5;"/><text fill="#000000" font-family="sans-serif" font-size="11" lengthAdjust="spacingAndGlyphs" textLength="21" x="298.5" y="295.5034">yes</text><text fill="#000000" font-family="sans-serif" font-size="11" lengthAdjust="spacingAndGlyphs" textLength="110" x="239.5" y="277.1011">writer_guid defined</text><polygon fill="#FEFECE" filter="url(#f16z1jubqmvon6)" points="294.5,363.6641,306.5,375.6641,294.5,387.6641,282.5,375.6641,294.5,363.6641" style="stroke: #A80036; stroke-width: 1.5;"/><rect fill="#FEFECE" filter="url(#f16z1jubqmvon6)" height="33.9688" rx="12.5" ry="12.5" style="stroke: #A80036; stroke-width: 1.5;" width="178" x="768.5" y="153.3555"/><text fill="#000000" font-family="sans-serif" font-size="12" lengthAdjust="spacingAndGlyphs" textLength="154" x="782.5" y="174.4941">process_discovery_info()</text><rect fill="#FEFECE" filter="url(#f16z1jubqmvon6)" height="33.9688" rx="12.5" ry="12.5" style="stroke: #A80036; stroke-width: 1.5;" width="475" x="620" y="207.3242"/><text fill="#000000" font-family="sans-serif" font-size="12" lengthAdjust="spacingAndGlyphs" textLength="451" x="634" y="228.4629">remote_response_guid_by_remote_request_guid_.erase(proxyData.guid())</text><polygon fill="#FEFECE" filter="url(#f16z1jubqmvon6)" points="576,393.6641,588,405.6641,576,417.6641,564,405.6641,576,393.6641" style="stroke: #A80036; stroke-width: 1.5;"/><polygon fill="#FEFECE" filter="url(#f16z1jubqmvon6)" points="506,70.9531,646,70.9531,658,82.9531,646,94.9531,506,94.9531,494,82.9531,506,70.9531" style="stroke: #A80036; stroke-width: 1.5;"/><text fill="#000000" font-family="sans-serif" font-size="11" lengthAdjust="spacingAndGlyphs" textLength="14" x="580" y="105.1636">no</text><text fill="#000000" font-family="sans-serif" font-size="11" lengthAdjust="spacingAndGlyphs" textLength="140" x="506" y="86.7612">CHANGED_QOS_READER</text><text fill="#000000" font-family="sans-serif" font-size="11" lengthAdjust="spacingAndGlyphs" textLength="21" x="658" y="80.3589">yes</text><ellipse cx="701" cy="82.9531" fill="#FFFFFF" filter="url(#f16z1jubqmvon6)" rx="11" ry="11" style="stroke: #000000; stroke-width: 1.0;"/><ellipse cx="701" cy="82.9531" fill="#000000" rx="6" ry="6" style="stroke: #7F7F7F; stroke-width: 1.0;"/><ellipse cx="576" cy="448.6641" fill="#FFFFFF" filter="url(#f16z1jubqmvon6)" rx="11" ry="11" style="stroke: #000000; stroke-width: 1.0;"/><ellipse cx="576" cy="448.6641" fill="#000000" rx="6" ry="6" style="stroke: #7F7F7F; stroke-width: 1.0;"/><line style="stroke: #A80036; stroke-width: 1.5;" x1="294.5" x2="294.5" y1="187.3242" y2="207.3242"/><polygon fill="#A80036" points="290.5,197.3242,294.5,207.3242,298.5,197.3242,294.5,201.3242" style="stroke: #A80036; stroke-width: 1.0;"/><line style="stroke: #A80036; stroke-width: 1.5;" x1="294.5" x2="294.5" y1="285.293" y2="309.6953"/><polygon fill="#A80036" points="290.5,299.6953,294.5,309.6953,298.5,299.6953,294.5,303.6953" style="stroke: #A80036; stroke-width: 1.0;"/><line style="stroke: #A80036; stroke-width: 1.5;" x1="361.5" x2="588" y1="273.293" y2="273.293"/><polygon fill="#A80036" points="584,316.6797,588,326.6797,592,316.6797,588,320.6797" style="stroke: #A80036; stroke-width: 1.5;"/><line style="stroke: #A80036; stroke-width: 1.5;" x1="588" x2="588" y1="273.293" y2="375.6641"/><line style="stroke: #A80036; stroke-width: 1.5;" x1="588" x2="306.5" y1="375.6641" y2="375.6641"/><polygon fill="#A80036" points="316.5,371.6641,306.5,375.6641,316.5,379.6641,312.5,375.6641" style="stroke: #A80036; stroke-width: 1.0;"/><line style="stroke: #A80036; stroke-width: 1.5;" x1="294.5" x2="294.5" y1="343.6641" y2="363.6641"/><polygon fill="#A80036" points="290.5,353.6641,294.5,363.6641,298.5,353.6641,294.5,357.6641" style="stroke: #A80036; stroke-width: 1.0;"/><line style="stroke: #A80036; stroke-width: 1.5;" x1="294.5" x2="294.5" y1="241.293" y2="261.293"/><polygon fill="#A80036" points="290.5,251.293,294.5,261.293,298.5,251.293,294.5,255.293" style="stroke: #A80036; stroke-width: 1.0;"/><line style="stroke: #A80036; stroke-width: 1.5;" x1="857.5" x2="857.5" y1="187.3242" y2="207.3242"/><polygon fill="#A80036" points="853.5,197.3242,857.5,207.3242,861.5,197.3242,857.5,201.3242" style="stroke: #A80036; stroke-width: 1.0;"/><line style="stroke: #A80036; stroke-width: 1.5;" x1="501" x2="294.5" y1="131.3555" y2="131.3555"/><line style="stroke: #A80036; stroke-width: 1.5;" x1="294.5" x2="294.5" y1="131.3555" y2="153.3555"/><polygon fill="#A80036" points="290.5,143.3555,294.5,153.3555,298.5,143.3555,294.5,147.3555" style="stroke: #A80036; stroke-width: 1.0;"/><line style="stroke: #A80036; stroke-width: 1.5;" x1="651" x2="857.5" y1="131.3555" y2="131.3555"/><line style="stroke: #A80036; stroke-width: 1.5;" x1="857.5" x2="857.5" y1="131.3555" y2="153.3555"/><polygon fill="#A80036" points="853.5,143.3555,857.5,153.3555,861.5,143.3555,857.5,147.3555" style="stroke: #A80036; stroke-width: 1.0;"/><line style="stroke: #A80036; stroke-width: 1.5;" x1="294.5" x2="294.5" y1="387.6641" y2="405.6641"/><line style="stroke: #A80036; stroke-width: 1.5;" x1="294.5" x2="564" y1="405.6641" y2="405.6641"/><polygon fill="#A80036" points="554,401.6641,564,405.6641,554,409.6641,558,405.6641" style="stroke: #A80036; stroke-width: 1.0;"/><line style="stroke: #A80036; stroke-width: 1.5;" x1="857.5" x2="857.5" y1="241.293" y2="405.6641"/><line style="stroke: #A80036; stroke-width: 1.5;" x1="857.5" x2="588" y1="405.6641" y2="405.6641"/><polygon fill="#A80036" points="598,401.6641,588,405.6641,598,409.6641,594,405.6641" style="stroke: #A80036; stroke-width: 1.0;"/><line style="stroke: #A80036; stroke-width: 1.5;" x1="576" x2="576" y1="94.9531" y2="119.3555"/><polygon fill="#A80036" points="572,109.3555,576,119.3555,580,109.3555,576,113.3555" style="stroke: #A80036; stroke-width: 1.0;"/><line style="stroke: #A80036; stroke-width: 1.5;" x1="658" x2="690" y1="82.9531" y2="82.9531"/><polygon fill="#A80036" points="680,78.9531,690,82.9531,680,86.9531,684,82.9531" style="stroke: #A80036; stroke-width: 1.0;"/><line style="stroke: #A80036; stroke-width: 1.5;" x1="576" x2="576" y1="417.6641" y2="437.6641"/><polygon fill="#A80036" points="572,427.6641,576,437.6641,580,427.6641,576,431.6641" style="stroke: #A80036; stroke-width: 1.0;"/><line style="stroke: #A80036; stroke-width: 1.5;" x1="576" x2="576" y1="50.9531" y2="70.9531"/><polygon fill="#A80036" points="572,60.9531,576,70.9531,580,60.9531,576,64.9531" style="stroke: #A80036; stroke-width: 1.0;"/><!--MD5=[860b91a6e851b2c41cb8d603f33ab676]
@startuml
title ParticipantListener::onSubscriberDiscovery
start
if (CHANGED_QOS_READER) then (yes)
  stop
else (no)
  if (DISCOVERED_READER) then (yes)
    : process_discovery_info();
    : get writer_guid from USER_DATA;
    if (writer_guid defined) then (yes)
      : remote_response_guid_by_remote_request_guid_.emplace(proxyData.guid(), writer_guid);
    endif
  else (no)
    : process_discovery_info();
    : remote_response_guid_by_remote_request_guid_.erase(proxyData.guid());
  endif
endif
stop
@enduml

PlantUML version 1.2020.16beta7(Unknown compile time)
(GPL source distribution)
Java Runtime: Java(TM) SE Runtime Environment
JVM: Java HotSpot(TM) 64-Bit Server VM
Default Encoding: UTF-8
Language: en
Country: US
--></g></svg>