<?xml version="1.0" encoding="UTF-8" standalone="no"?><svg xmlns="http://www.w3.org/2000/svg" xmlns:xlink="http://www.w3.org/1999/xlink" contentScriptType="application/ecmascript" contentStyleType="text/css" height="389px" preserveAspectRatio="none" style="width:490px;height:389px;" version="1.1" viewBox="0 0 490 389" width="490px" zoomAndPan="magnify"><defs><filter height="300%" id="fkwx7h74jn3lv" width="300%" x="-1" y="-1"><feGaussianBlur result="blurOut" stdDeviation="2.0"/><feColorMatrix in="blurOut" result="blurOut2" type="matrix" values="0 0 0 0 0 0 0 0 0 0 0 0 0 0 0 0 0 0 .4 0"/><feOffset dx="4.0" dy="4.0" in="blurOut2" result="blurOut3"/><feBlend in="SourceGraphic" in2="blurOut3" mode="normal"/></filter></defs><g><text fill="#000000" font-family="sans-serif" font-size="18" lengthAdjust="spacingAndGlyphs" textLength="303" x="92.5" y="26.708">rmw_service_server_is_available</text><ellipse cx="247" cy="40.9531" fill="#000000" filter="url(#fkwx7h74jn3lv)" rx="10" ry="10" style="stroke: none; stroke-width: 1.0;"/><rect fill="#FEFECE" filter="url(#fkwx7h74jn3lv)" height="33.9688" rx="12.5" ry="12.5" style="stroke: #A80036; stroke-width: 1.5;" width="182" x="156" y="70.9531"/><text fill="#000000" font-family="sans-serif" font-size="12" lengthAdjust="spacingAndGlyphs" textLength="158" x="170" y="92.0918">initial checks (unmodified)</text><rect fill="#FEFECE" filter="url(#fkwx7h74jn3lv)" height="33.9688" rx="12.5" ry="12.5" style="stroke: #A80036; stroke-width: 1.5;" width="147" x="173.5" y="124.9219"/><text fill="#000000" font-family="sans-serif" font-size="12" lengthAdjust="spacingAndGlyphs" textLength="123" x="187.5" y="146.0605">*is_available = false</text><polygon fill="#FEFECE" filter="url(#fkwx7h74jn3lv)" points="105,178.8906,389,178.8906,401,190.8906,389,202.8906,105,202.8906,93,190.8906,105,178.8906" style="stroke: #A80036; stroke-width: 1.5;"/><text fill="#000000" font-family="sans-serif" font-size="11" lengthAdjust="spacingAndGlyphs" textLength="284" x="105" y="194.6987">CustomClientInfo::complete_matches_count_ != 0</text><text fill="#000000" font-family="sans-serif" font-size="11" lengthAdjust="spacingAndGlyphs" textLength="21" x="72" y="188.2964">yes</text><text fill="#000000" font-family="sans-serif" font-size="11" lengthAdjust="spacingAndGlyphs" textLength="14" x="401" y="188.2964">no</text><rect fill="#FEFECE" filter="url(#fkwx7h74jn3lv)" height="33.9688" rx="12.5" ry="12.5" style="stroke: #A80036; stroke-width: 1.5;" width="142" x="12" y="212.8906"/><text fill="#000000" font-family="sans-serif" font-size="12" lengthAdjust="spacingAndGlyphs" textLength="118" x="26" y="234.0293">*is_available = true</text><rect fill="#FEFECE" filter="url(#fkwx7h74jn3lv)" height="33.9688" rx="12.5" ry="12.5" style="stroke: #A80036; stroke-width: 1.5;" width="144" x="11" y="266.8594"/><text fill="#000000" font-family="sans-serif" font-size="12" lengthAdjust="spacingAndGlyphs" textLength="120" x="25" y="287.998">return RMW_RET_OK</text><rect fill="#FEFECE" filter="url(#fkwx7h74jn3lv)" height="33.9688" rx="12.5" ry="12.5" style="stroke: #A80036; stroke-width: 1.5;" width="124" x="349" y="212.8906"/><text fill="#000000" font-family="sans-serif" font-size="12" lengthAdjust="spacingAndGlyphs" textLength="100" x="363" y="234.0293">legacy algorithm</text><polygon fill="#FEFECE" filter="url(#fkwx7h74jn3lv)" points="247,306.8281,259,318.8281,247,330.8281,235,318.8281,247,306.8281" style="stroke: #A80036; stroke-width: 1.5;"/><ellipse cx="247" cy="361.8281" fill="#FFFFFF" filter="url(#fkwx7h74jn3lv)" rx="11" ry="11" style="stroke: #000000; stroke-width: 1.0;"/><ellipse cx="247" cy="361.8281" fill="#000000" rx="6" ry="6" style="stroke: #7F7F7F; stroke-width: 1.0;"/><line style="stroke: #A80036; stroke-width: 1.5;" x1="247" x2="247" y1="50.9531" y2="70.9531"/><polygon fill="#A80036" points="243,60.9531,247,70.9531,251,60.9531,247,64.9531" style="stroke: #A80036; stroke-width: 1.0;"/><line style="stroke: #A80036; stroke-width: 1.5;" x1="247" x2="247" y1="104.9219" y2="124.9219"/><polygon fill="#A80036" points="243,114.9219,247,124.9219,251,114.9219,247,118.9219" style="stroke: #A80036; stroke-width: 1.0;"/><line style="stroke: #A80036; stroke-width: 1.5;" x1="83" x2="83" y1="246.8594" y2="266.8594"/><polygon fill="#A80036" points="79,256.8594,83,266.8594,87,256.8594,83,260.8594" style="stroke: #A80036; stroke-width: 1.0;"/><line style="stroke: #A80036; stroke-width: 1.5;" x1="93" x2="83" y1="190.8906" y2="190.8906"/><line style="stroke: #A80036; stroke-width: 1.5;" x1="83" x2="83" y1="190.8906" y2="212.8906"/><polygon fill="#A80036" points="79,202.8906,83,212.8906,87,202.8906,83,206.8906" style="stroke: #A80036; stroke-width: 1.0;"/><line style="stroke: #A80036; stroke-width: 1.5;" x1="401" x2="411" y1="190.8906" y2="190.8906"/><line style="stroke: #A80036; stroke-width: 1.5;" x1="411" x2="411" y1="190.8906" y2="212.8906"/><polygon fill="#A80036" points="407,202.8906,411,212.8906,415,202.8906,411,206.8906" style="stroke: #A80036; stroke-width: 1.0;"/><line style="stroke: #A80036; stroke-width: 1.5;" x1="83" x2="83" y1="300.8281" y2="318.8281"/><line style="stroke: #A80036; stroke-width: 1.5;" x1="83" x2="235" y1="318.8281" y2="318.8281"/><polygon fill="#A80036" points="225,314.8281,235,318.8281,225,322.8281,229,318.8281" style="stroke: #A80036; stroke-width: 1.0;"/><line style="stroke: #A80036; stroke-width: 1.5;" x1="411" x2="411" y1="246.8594" y2="318.8281"/><line style="stroke: #A80036; stroke-width: 1.5;" x1="411" x2="259" y1="318.8281" y2="318.8281"/><polygon fill="#A80036" points="269,314.8281,259,318.8281,269,322.8281,265,318.8281" style="stroke: #A80036; stroke-width: 1.0;"/><line style="stroke: #A80036; stroke-width: 1.5;" x1="247" x2="247" y1="158.8906" y2="178.8906"/><polygon fill="#A80036" points="243,168.8906,247,178.8906,251,168.8906,247,172.8906" style="stroke: #A80036; stroke-width: 1.0;"/><line style="stroke: #A80036; stroke-width: 1.5;" x1="247" x2="247" y1="330.8281" y2="350.8281"/><polygon fill="#A80036" points="243,340.8281,247,350.8281,251,340.8281,247,344.8281" style="stroke: #A80036; stroke-width: 1.0;"/><!--MD5=[0dcffb7fc4f3e1e519e6bbe15fad420a]
@startuml
title rmw_service_server_is_available
start
: initial checks (unmodified);
: *is_available = false;
if (CustomClientInfo::complete_matches_count_ != 0) then (yes)
  : *is_available = true;
  : return RMW_RET_OK;
else (no)
  : legacy algorithm;
endif
stop
@enduml

PlantUML version 1.2020.16beta7(Unknown compile time)
(GPL source distribution)
Java Runtime: Java(TM) SE Runtime Environment
JVM: Java HotSpot(TM) 64-Bit Server VM
Default Encoding: UTF-8
Language: en
Country: US
--></g></svg>