<?xml version="1.0" encoding="UTF-8" standalone="no"?><svg xmlns="http://www.w3.org/2000/svg" xmlns:xlink="http://www.w3.org/1999/xlink" contentScriptType="application/ecmascript" contentStyleType="text/css" height="256px" preserveAspectRatio="none" style="width:402px;height:256px;" version="1.1" viewBox="0 0 402 256" width="402px" zoomAndPan="magnify"><defs><filter height="300%" id="fbmwu1owybal" width="300%" x="-1" y="-1"><feGaussianBlur result="blurOut" stdDeviation="2.0"/><feColorMatrix in="blurOut" result="blurOut2" type="matrix" values="0 0 0 0 0 0 0 0 0 0 0 0 0 0 0 0 0 0 .4 0"/><feOffset dx="4.0" dy="4.0" in="blurOut2" result="blurOut3"/><feBlend in="SourceGraphic" in2="blurOut3" mode="normal"/></filter></defs><g><text fill="#000000" font-family="sans-serif" font-size="18" lengthAdjust="spacingAndGlyphs" textLength="378" x="12" y="26.708">ServiceListener::OnSubscriptionMatched</text><ellipse cx="189.5" cy="40.9531" fill="#000000" filter="url(#fbmwu1owybal)" rx="10" ry="10" style="stroke: none; stroke-width: 1.0;"/><rect fill="#FEFECE" filter="url(#fbmwu1owybal)" height="33.9688" rx="12.5" ry="12.5" style="stroke: #A80036; stroke-width: 1.5;" width="310" x="34.5" y="119.3555"/><text fill="#000000" font-family="sans-serif" font-size="12" lengthAdjust="spacingAndGlyphs" textLength="286" x="48.5" y="140.4941">pending_requests_.erase(remoteEndpointGuid)</text><polygon fill="#FEFECE" filter="url(#fbmwu1owybal)" points="128.5,70.9531,250.5,70.9531,262.5,82.9531,250.5,94.9531,128.5,94.9531,116.5,82.9531,128.5,70.9531" style="stroke: #A80036; stroke-width: 1.5;"/><text fill="#000000" font-family="sans-serif" font-size="11" lengthAdjust="spacingAndGlyphs" textLength="14" x="193.5" y="105.1636">no</text><text fill="#000000" font-family="sans-serif" font-size="11" lengthAdjust="spacingAndGlyphs" textLength="122" x="128.5" y="86.7612">MATCHED_MATCHING</text><polygon fill="#FEFECE" filter="url(#fbmwu1owybal)" points="189.5,173.3242,201.5,185.3242,189.5,197.3242,177.5,185.3242,189.5,173.3242" style="stroke: #A80036; stroke-width: 1.5;"/><ellipse cx="189.5" cy="228.3242" fill="#FFFFFF" filter="url(#fbmwu1owybal)" rx="11" ry="11" style="stroke: #000000; stroke-width: 1.0;"/><ellipse cx="189.5" cy="228.3242" fill="#000000" rx="6" ry="6" style="stroke: #7F7F7F; stroke-width: 1.0;"/><line style="stroke: #A80036; stroke-width: 1.5;" x1="189.5" x2="189.5" y1="94.9531" y2="119.3555"/><polygon fill="#A80036" points="185.5,109.3555,189.5,119.3555,193.5,109.3555,189.5,113.3555" style="stroke: #A80036; stroke-width: 1.0;"/><line style="stroke: #A80036; stroke-width: 1.5;" x1="262.5" x2="354.5" y1="82.9531" y2="82.9531"/><polygon fill="#A80036" points="350.5,126.3398,354.5,136.3398,358.5,126.3398,354.5,130.3398" style="stroke: #A80036; stroke-width: 1.5;"/><line style="stroke: #A80036; stroke-width: 1.5;" x1="354.5" x2="354.5" y1="82.9531" y2="185.3242"/><line style="stroke: #A80036; stroke-width: 1.5;" x1="354.5" x2="201.5" y1="185.3242" y2="185.3242"/><polygon fill="#A80036" points="211.5,181.3242,201.5,185.3242,211.5,189.3242,207.5,185.3242" style="stroke: #A80036; stroke-width: 1.0;"/><line style="stroke: #A80036; stroke-width: 1.5;" x1="189.5" x2="189.5" y1="153.3242" y2="173.3242"/><polygon fill="#A80036" points="185.5,163.3242,189.5,173.3242,193.5,163.3242,189.5,167.3242" style="stroke: #A80036; stroke-width: 1.0;"/><line style="stroke: #A80036; stroke-width: 1.5;" x1="189.5" x2="189.5" y1="50.9531" y2="70.9531"/><polygon fill="#A80036" points="185.5,60.9531,189.5,70.9531,193.5,60.9531,189.5,64.9531" style="stroke: #A80036; stroke-width: 1.0;"/><line style="stroke: #A80036; stroke-width: 1.5;" x1="189.5" x2="189.5" y1="197.3242" y2="217.3242"/><polygon fill="#A80036" points="185.5,207.3242,189.5,217.3242,193.5,207.3242,189.5,211.3242" style="stroke: #A80036; stroke-width: 1.0;"/><!--MD5=[94c1dc7c09be6eff8d093baaef8a7a17]
@startuml
title ServiceListener::OnSubscriptionMatched
start
if (MATCHED_MATCHING) then (no)
  : pending_requests_.erase(remoteEndpointGuid);
endif
stop
@enduml

PlantUML version 1.2020.16beta7(Unknown compile time)
(GPL source distribution)
Java Runtime: Java(TM) SE Runtime Environment
JVM: Java HotSpot(TM) 64-Bit Server VM
Default Encoding: UTF-8
Language: en
Country: US
--></g></svg>